<svg width="24" height="24" viewBox="0 0 24 24" fill="none" xmlns="http://www.w3.org/2000/svg">
<g clip-path="url(#clip0_103_234)">
<path fill-rule="evenodd" clip-rule="evenodd" d="M12 0.769287C5.79719 0.769287 0.769287 5.79719 0.769287 12C0.769287 18.2028 5.79719 23.2307 12 23.2307C18.2028 23.2307 23.2307 18.2028 23.2307 12C23.2307 5.79719 18.2028 0.769287 12 0.769287ZM8.97635 7.6805C8.35434 7.6805 8.0226 8.16313 7.8982 8.41078C7.75041 8.7223 7.67594 9.06353 7.6805 9.4083C7.6805 9.75155 7.74846 10.1052 7.8982 10.4058C8.0226 10.6535 8.35319 11.1361 8.97635 11.1361C9.59836 11.1361 9.93009 10.6535 10.0545 10.4058C10.2042 10.1063 10.2722 9.75155 10.2722 9.4083C10.2722 9.06504 10.2042 8.71142 10.0545 8.41078C9.93009 8.16313 9.59951 7.6805 8.97635 7.6805ZM13.9455 8.41078C14.0699 8.16313 14.4005 7.6805 15.0237 7.6805C15.6457 7.6805 15.9774 8.16313 16.1018 8.41078C16.2515 8.71026 16.3195 9.06504 16.3195 9.4083C16.3195 9.75155 16.2515 10.1052 16.1018 10.4058C15.9774 10.6535 15.6468 11.1361 15.0237 11.1361C14.4016 11.1361 14.0699 10.6535 13.9455 10.4058C13.7977 10.0943 13.7232 9.75306 13.7278 9.4083C13.7278 9.06504 13.7958 8.71142 13.9455 8.41078ZM16.2757 16.2757C16.3606 16.1966 16.4287 16.1013 16.4759 15.9953C16.5231 15.8893 16.5485 15.7749 16.5506 15.6589C16.5526 15.5429 16.5313 15.4277 16.4878 15.3201C16.4444 15.2126 16.3797 15.1149 16.2977 15.0328C16.2156 14.9508 16.1179 14.8861 16.0103 14.8427C15.9028 14.7992 15.7875 14.7779 15.6716 14.7799C15.5556 14.782 15.4412 14.8074 15.3352 14.8546C15.2292 14.9018 15.1338 14.9699 15.0548 15.0548C14.6536 15.456 14.1774 15.7743 13.6533 15.9914C13.1291 16.2085 12.5673 16.3203 12 16.3203C11.4327 16.3203 10.8709 16.2085 10.3467 15.9914C9.82259 15.7743 9.34636 15.456 8.94525 15.0548C8.78148 14.9022 8.56487 14.8191 8.34107 14.823C8.11726 14.827 7.90372 14.9176 7.74544 15.0759C7.58715 15.2342 7.49649 15.4477 7.49254 15.6716C7.48859 15.8954 7.57167 16.112 7.72427 16.2757C8.85833 17.4096 10.3963 18.0466 12 18.0466C13.6037 18.0466 15.1417 17.4096 16.2757 16.2757Z" fill="#5D5FEF"/>
</g>
<defs>
<clipPath id="clip0_103_234">
<rect width="24" height="24" fill="white"/>
</clipPath>
</defs>
</svg>
